<?xml version="1.0" encoding="UTF-8" standalone="no"?>
<svg
   id="Layer_1"
   data-name="Layer 1"
   viewBox="0 0 122.88 105.5"
   version="1.1"
   sodipodi:docname="break-time-white.svg"
   inkscape:version="1.1.1 (3bf5ae0d25, 2021-09-20)"
   xmlns:inkscape="http://www.inkscape.org/namespaces/inkscape"
   xmlns:sodipodi="http://sodipodi.sourceforge.net/DTD/sodipodi-0.dtd"
   xmlns="http://www.w3.org/2000/svg"
   xmlns:svg="http://www.w3.org/2000/svg"
   xmlns:rdf="http://www.w3.org/1999/02/22-rdf-syntax-ns#"
   xmlns:cc="http://creativecommons.org/ns#"
   xmlns:dc="http://purl.org/dc/elements/1.1/">
  <defs
     id="defs840" />
  <sodipodi:namedview
     id="namedview838"
     pagecolor="#505050"
     bordercolor="#ffffff"
     borderopacity="1"
     inkscape:pageshadow="0"
     inkscape:pageopacity="0"
     inkscape:pagecheckerboard="1"
     showgrid="false"
     inkscape:zoom="7.6682464"
     inkscape:cx="61.48733"
     inkscape:cy="52.75"
     inkscape:window-width="1920"
     inkscape:window-height="1017"
     inkscape:window-x="1912"
     inkscape:window-y="-8"
     inkscape:window-maximized="1"
     inkscape:current-layer="Layer_1" />
  <title
     id="title833">break-time</title>
  <path
     d="M66,5.55A3.44,3.44,0,0,1,69.14,0a3.45,3.45,0,0,1,2.29,1.31C74,4.68,73,8,71.87,11.6a20.25,20.25,0,0,0-1,4.53A7.06,7.06,0,0,0,72,20.51c2.33,4.06-3.44,7.44-5.83,3.71-3.24-4.87-2.42-9.47-.86-14.68A20,20,0,0,0,66,6.61a1.76,1.76,0,0,0,0-1.06ZM35.13,9.92A25.4,25.4,0,1,1,0,33.37,25.77,25.77,0,0,1,15.8,9.75h0A24.9,24.9,0,0,1,25.39,8,26.2,26.2,0,0,1,35.1,9.91Zm-13,21.65V21a2.49,2.49,0,0,1,5,0V31.57a4.65,4.65,0,0,1,.85.67,4.15,4.15,0,0,1,.66.84h7.46a2.48,2.48,0,0,1,1.76,4.24l0,0a2.5,2.5,0,0,1-1.73.7H28.66a4.64,4.64,0,0,1-4,2.23,4.65,4.65,0,0,1-3.54-1.6h0a4.51,4.51,0,0,1-.6-.87A4.63,4.63,0,0,1,20,34.7,4.74,4.74,0,0,1,21.57,32a5.13,5.13,0,0,1,.6-.44ZM39.83,19.32a20.66,20.66,0,0,0-18.16-5.79A20.18,20.18,0,0,0,10.83,19.1a19.81,19.81,0,0,0-4,5.67A20.65,20.65,0,0,0,5.46,29v0a20.41,20.41,0,1,0,39.83-.2,20.14,20.14,0,0,0-1.53-4.34v0A14.84,14.84,0,0,0,42,21.74a28.83,28.83,0,0,0-2.21-2.42ZM43,81.86a31.19,31.19,0,0,1-6.56-9.93,32.7,32.7,0,0,1-1.3-3.8,34.59,34.59,0,0,0,5-1.76A26.57,26.57,0,0,0,65.71,86.28h6.93a26.32,26.32,0,0,0,18.67-7.77,26.62,26.62,0,0,0,6.62-11c1.35-4.43,1.15-8,1.15-12.4v-19H61.16c.05-.75.08-1.5.08-2.26,0-1-.05-2-.13-3h39.74a3.45,3.45,0,0,1,3.46,3.45V44.76h.22a34.34,34.34,0,0,1,7.38.16,12.48,12.48,0,0,1,7.15,3.6,12.89,12.89,0,0,1,3,4.88,15.42,15.42,0,0,1,.79,5.92,17.07,17.07,0,0,1-.49,3.22,18.7,18.7,0,0,1-2.85,6.18,19.07,19.07,0,0,1-2.29,2.7,22.24,22.24,0,0,1-8.63,5.18,30.68,30.68,0,0,1-10.1,1.5c-.44.62-.89,1.22-1.36,1.78A30.8,30.8,0,0,1,95,82.22h0a31.59,31.59,0,0,1-22.37,9.3H65.7A32.7,32.7,0,0,1,43,81.86ZM103.5,50v9.24a28,28,0,0,1-2.81,12.24c6-.16,10.34-2.14,13.12-4.87a13.42,13.42,0,0,0,2.78-4,11.82,11.82,0,0,0,1.06-4.21A8.41,8.41,0,0,0,115.48,52c-2.4-2.45-6.23-2.26-10-2.08-.67,0-1.34.08-2,.09ZM82.92,5.55a3.44,3.44,0,0,1,5.45-4.21c2.51,3.26,1.59,6.43.5,10.07a20.76,20.76,0,0,0-1,4.72,7.12,7.12,0,0,0,1.08,4.38,3.46,3.46,0,0,1-5.83,3.71,13.55,13.55,0,0,1-2.2-8,26.14,26.14,0,0,1,1.34-6.63c.2-.66,1.14-3.43.7-4ZM23,105.5c-4.17,0-3-6.8,0-6.8h88.22c3.2,0,4.1,6.8,0,6.8Z"
     id="path835"
     style="fill:#ffffff;fill-opacity:1" />
  <metadata
     id="metadata3050">
    <rdf:RDF>
      <cc:Work
         rdf:about="">
        <dc:title>break-time</dc:title>
      </cc:Work>
    </rdf:RDF>
  </metadata>
</svg>
